{"title":"Running Man EP140 720p (Eng sub)","uid":8358967,"size":1998436220,"categoryP":"video","categoryS":"hd___tv_shows","magnet":"?xt=urn:btih:eb97ad12e52de5e36a735d39ef439938631afa46&amp;dn=Running+Man+EP140+720p+%28Eng+sub%29&amp;tr=udp%3A%2F%2Ftracker.openbittorrent.com%3A80&amp;tr=udp%3A%2F%2Fopen.demonii.com%3A1337&amp;tr=udp%3A%2F%2Ftracker.coppersurfer.tk%3A6969&amp;tr=udp%3A%2F%2Fexodus.desync.com%3A6969","seeders":1,"leechers":0,"uploader":"adrianyujs","files":2,"time":1365565541,"description":"Video\nID : 0\nCodec ID : H264\nDuration : 1h 17mn\nBit rate : 3 000 Kbps\nWidth : 1 280 pixels\nHeight : 720 pixels\nDisplay aspect ratio : 16:9\nFrame rate mode : Variable\nFrame rate : 29.970 fps\nStream size : 1.61 GiB (94%)\nWriting library : x264 core 112\n\nAudio\nID : 1\nFormat : MPEG Audio\nCodec ID/Hint : MP3\nDuration : 1h 17mn\nBit rate mode : Constant\nBit rate : 192 Kbps\nChannel(s) : 2 channels\nSampling rate : 48.0 KHz\nCompression mode : Lossy\nStream size : 106 MiB (6%)","torrent":{"xt":"urn:btih:eb97ad12e52de5e36a735d39ef439938631afa46","amp;dn":"Running+Man+EP140+720p+%28Eng+sub%29","amp;tr":["udp%3A%2F%2Ftracker.openbittorrent.com%3A80","udp%3A%2F%2Fopen.demonii.com%3A1337","udp%3A%2F%2Ftracker.coppersurfer.tk%3A6969","udp%3A%2F%2Fexodus.desync.com%3A6969"],"infoHash":"eb97ad12e52de5e36a735d39ef439938631afa46","infoHashBuffer":{"type":"Buffer","data":[235,151,173,18,229,45,229,227,106,115,93,57,239,67,153,56,99,26,250,70]},"announce":[],"urlList":[]}}